# xmcd CD database file generated by Grip 3.2.0
# 
# Track frame offsets:
#       150
#       10416
#       19908
#       34497
#       48738
#       60126
#       79104
#       91467
#       110622
#       119022
#       131166
#       144939
# 
# Disc length: 2137 seconds
# 
# Revision: 2
# Processed by: cddbd v1.5.2PL0 Copyright (c) Steve Scherf et al.
# Submitted via: Grip 3.2.0
# 
DISCID=a708570c
DTITLE=Various Artist - Bluegrass Greats
DYEAR=1900
DGENRE=Country
TTITLE0=Del McCoury-Trainwreck of Emotion
TTITLE1=Ricky Skaggs (with Peter Rowan)-Lost And I'll Never Find The Way
TTITLE2=Beth and April Stevens-In My Time of Dying
TTITLE3=Jeff White-I Never Knew
TTITLE4=Longview (James King, Dudley Connell, Joe Mullins, Don Rigsby, Glen Du
TTITLE4=ncan, Marshall Wilborn)-There's a Brighter Mansion Over There
TTITLE5=Lynn Morris-Mama's Hand
TTITLE6=Wyatt Rice and Santa Cruz-Picture in a Tear
TTITLE7=Cox Family-Everybody's Reaching Out for Someone
TTITLE8=Jim and Jesse and the Virginia Boys-Hard Hearted
TTITLE9=James King-Indecision
TTITLE10=Illrd Tyme Out (with special guest Earl Scruggs)-I'm Working on the Ro
TTITLE10=ad to Gloryland
TTITLE11=Johnson Mountain Boys-My Better Years
EXTD=
EXTT0=Del McCoury\n
EXTT1=Ricky Skaggs with Pete Rowan\n\n\n
EXTT2=Beth and April Stevens\n
EXTT3=Jeff White\n
EXTT4=Longview\n
EXTT5=Lynn Morris\n
EXTT6=Wyatt Rice and Santa Cruz\n
EXTT7=Cox Family\n
EXTT8=Jim and Jesse and the Virginia Boys\n
EXTT9=James King\n
EXTT10=IIIrd Tyme Out with Earl Scruggs\n
EXTT11=Johnson Mountain Boys\n
PLAYORDER=
